<?xml version="1.0" standalone="no"?>
<!DOCTYPE svg PUBLIC "-//W3C//DTD SVG 20010904//EN"
 "http://www.w3.org/TR/2001/REC-SVG-20010904/DTD/svg10.dtd">
<svg version="1.0" xmlns="http://www.w3.org/2000/svg"
 width="1125.000000pt" height="1151.000000pt" viewBox="0 0 1125.000000 1151.000000"
 preserveAspectRatio="xMidYMid meet">

<g transform="translate(0.000000,1151.000000) scale(0.100000,-0.100000)"
fill="#000000" stroke="none">
<path d="M962 10841 c-18 -12 -39 -36 -46 -54 -11 -26 -14 -717 -15 -3945 l-1
-3912 34 -38 34 -37 4774 -6 c4460 -6 4775 -6 4803 10 16 9 37 30 46 46 16 28
18 283 21 3937 4 3052 2 3914 -8 3936 -6 16 -25 39 -42 51 l-31 21 -4768 6
-4768 6 -33 -21z m9128 -208 l305 -4 -1 -2772 c-1 -1525 -2 -3226 -2 -3782
l-2 -1010 -2477 2 c-1942 1 -4793 7 -6656 13 l-138 0 2 3780 1 3780 4331 -2
c2383 -1 4469 -3 4637 -5z"/>
<path d="M5459 8900 c-237 -23 -589 -93 -744 -149 -27 -10 -84 -29 -125 -42
-41 -12 -128 -47 -192 -76 -65 -29 -119 -53 -122 -53 -9 0 -251 -133 -291
-160 -22 -15 -61 -40 -86 -56 -60 -38 -132 -91 -184 -134 -22 -19 -63 -53 -90
-75 -118 -94 -282 -280 -404 -458 -40 -59 -136 -251 -163 -327 -66 -186 -95
-359 -92 -550 1 -123 7 -166 33 -280 38 -160 114 -355 184 -468 115 -186 355
-460 477 -544 25 -18 56 -42 70 -56 14 -13 45 -38 70 -55 25 -17 47 -34 50
-37 5 -6 49 -33 210 -128 197 -115 469 -232 695 -297 33 -10 87 -26 120 -35
280 -84 844 -133 1150 -100 50 5 140 14 200 20 200 20 500 91 715 170 63 23
131 48 151 56 126 46 469 229 565 301 17 13 34 23 38 23 8 0 14 5 71 53 22 18
60 47 85 64 66 45 241 214 302 291 29 37 56 69 60 72 4 3 18 21 31 40 13 19
45 65 70 102 53 76 142 248 152 293 4 17 13 39 20 50 18 29 62 189 74 265 41
274 13 513 -92 787 -32 82 -59 135 -137 268 -13 22 -51 75 -84 119 -34 43 -77
100 -96 126 -65 89 -267 272 -422 383 -56 40 -236 154 -284 180 -225 121 -344
174 -528 237 -211 71 -352 107 -578 146 -196 34 -214 36 -498 39 -162 2 -334
0 -381 -5z m586 -220 c274 -21 581 -86 849 -180 292 -103 674 -325 871 -505
28 -25 66 -60 85 -77 35 -31 167 -180 225 -253 57 -73 166 -281 209 -400 90
-254 97 -528 17 -770 -39 -120 -72 -197 -112 -263 -23 -37 -52 -86 -64 -109
-13 -23 -46 -69 -74 -101 -28 -32 -51 -63 -51 -68 0 -15 -214 -221 -289 -279
-35 -28 -78 -61 -95 -75 -68 -56 -220 -147 -386 -233 -284 -147 -676 -267
-1030 -314 -189 -25 -657 -25 -850 1 -583 77 -1040 257 -1470 577 -113 85
-320 292 -403 404 -193 261 -291 542 -290 835 1 167 27 285 106 475 131 317
375 600 713 826 104 69 325 199 340 199 2 0 52 23 111 51 197 94 496 182 773
228 217 36 561 49 815 31z"/>
<path d="M5540 7945 c-339 -62 -650 -301 -801 -615 -177 -369 -138 -798 101
-1119 76 -102 119 -144 235 -231 147 -111 321 -186 486 -210 161 -24 186 -27
235 -25 372 17 700 181 911 455 71 91 147 253 179 375 26 99 28 126 28 275 0
135 -4 181 -22 251 -53 213 -137 362 -302 532 -153 159 -346 262 -583 313 -87
18 -363 17 -467 -1z m-290 -441 c74 -34 116 -67 147 -117 76 -120 58 -282 -45
-393 -41 -44 -135 -85 -207 -91 -53 -5 -71 -1 -138 27 -98 41 -135 85 -166
199 -19 68 -20 86 -10 132 21 98 81 194 143 226 92 48 196 54 276 17z"/>
<path d="M6155 2370 c-222 -30 -388 -180 -440 -401 -19 -80 -19 -233 -1 -321
43 -199 186 -342 386 -384 101 -21 291 -14 418 16 l92 22 0 269 0 269 -120 0
-120 0 -2 -187 -3 -188 -105 0 c-120 0 -158 13 -221 76 -96 96 -117 334 -43
480 51 103 143 144 303 137 74 -3 111 -10 161 -31 35 -14 66 -25 67 -23 2 2
19 47 38 99 l34 96 -56 21 c-121 45 -275 65 -388 50z"/>
<path d="M7245 2369 c-216 -32 -367 -167 -431 -384 -13 -43 -18 -93 -17 -180
0 -104 4 -131 27 -200 34 -99 73 -161 140 -222 94 -86 223 -133 366 -133 262
0 442 131 516 376 14 44 18 91 18 189 0 115 -3 139 -28 209 -49 142 -132 239
-250 295 -102 48 -231 67 -341 50z m188 -225 c55 -19 117 -77 145 -138 67
-141 45 -357 -45 -457 -53 -59 -114 -84 -203 -83 -84 0 -128 16 -181 62 -101
88 -136 319 -70 466 60 137 209 200 354 150z"/>
<path d="M8330 2369 c-133 -19 -249 -104 -284 -206 -9 -26 -16 -79 -16 -118 0
-153 81 -237 307 -319 158 -56 203 -92 203 -163 0 -52 -32 -89 -87 -99 -73
-14 -234 2 -307 30 -37 14 -70 26 -71 26 -2 0 -16 -37 -31 -82 -15 -46 -29
-88 -31 -95 -6 -15 56 -47 132 -68 82 -22 274 -31 358 -16 133 23 225 87 267
183 19 45 22 65 18 147 -8 181 -64 238 -336 342 -136 51 -172 80 -172 136 0
57 21 80 87 93 74 16 169 6 246 -25 33 -14 61 -24 62 -22 5 6 65 179 65 186 0
9 -91 44 -155 60 -64 15 -185 20 -255 10z"/>
<path d="M4845 2355 c-5 -2 -40 -6 -77 -10 l-68 -7 0 -534 0 -534 125 0 125 0
0 195 0 195 59 0 c57 0 61 -2 89 -37 33 -42 143 -219 187 -300 l28 -53 139 0
139 0 -42 78 c-66 120 -135 234 -184 300 l-44 61 43 25 c110 64 163 167 154
300 -12 170 -109 270 -305 311 -60 13 -338 20 -368 10z m340 -225 c56 -24 77
-52 82 -107 5 -61 -20 -110 -72 -137 -28 -14 -65 -21 -141 -24 l-104 -5 0 146
0 146 28 4 c49 8 166 -5 207 -23z"/>
<path d="M2510 1810 l0 -540 120 0 120 0 2 228 3 227 84 -80 c88 -84 213 -233
270 -322 l33 -53 144 0 c79 0 144 3 144 6 0 10 -153 226 -219 309 -30 39 -100
115 -156 171 l-101 101 115 119 c123 127 331 358 331 368 0 3 -64 6 -142 6
l-143 -1 -108 -122 c-59 -67 -141 -158 -182 -202 l-74 -80 -1 203 0 202 -120
0 -120 0 0 -540z"/>
<path d="M3817 2178 c-108 -245 -347 -864 -347 -899 0 -5 55 -9 124 -9 l125 0
38 115 37 115 215 -2 214 -3 37 -110 37 -110 131 -3 c73 -1 132 -1 132 1 0 3
-43 120 -95 262 -104 281 -199 517 -281 695 l-53 115 -119 3 -118 3 -77 -173z
m243 -203 c23 -60 55 -147 71 -192 l28 -83 -151 0 -150 0 6 23 c15 57 142 375
147 369 4 -4 26 -56 49 -117z"/>
</g>
</svg>
